<svg width="35" height="35" viewBox="0 0 35 35" fill="none" xmlns="http://www.w3.org/2000/svg">
<g clip-path="url(#clip0)">
<path d="M30.4294 9.09784H9.11225C7.13696 9.09784 5.52213 7.49022 5.52213 5.50772C5.52213 3.53244 7.12975 1.91761 9.11225 1.91761H30.4367C30.9701 1.91761 31.3955 1.48507 31.3955 0.958805C31.3955 0.425335 30.9629 0 30.4367 0H9.11225C6.07723 0 3.60452 2.47271 3.60452 5.50772V29.4923C3.60452 32.5273 6.07723 35 9.11225 35H30.4367C30.9701 35 31.3955 34.5675 31.3955 34.0412V10.0566C31.3883 9.53038 30.9629 9.09784 30.4294 9.09784ZM29.4706 33.0824H9.11225C7.13696 33.0824 5.52213 31.4748 5.52213 29.4923V9.68898C6.48815 10.518 7.74253 11.0227 9.11225 11.0227H29.4706V33.0824Z" fill="black"/>
<path d="M9.41497 4.63538C8.8815 4.63538 8.45616 5.06792 8.45616 5.59418C8.45616 6.12044 8.88871 6.55299 9.41497 6.55299H27.4232C27.9567 6.55299 28.382 6.12044 28.382 5.59418C28.382 5.06792 27.9495 4.63538 27.4232 4.63538H9.41497Z" fill="black"/>
<path d="M12.7889 28.8867C12.897 28.9227 13.0052 28.9443 13.1133 28.9443C13.5098 28.9443 13.8775 28.6992 14.0144 28.3099L15.1823 25.0442H19.6808C19.7168 25.0442 19.7601 25.0442 19.7961 25.037L20.964 28.3099C21.101 28.6992 21.4758 28.9443 21.8651 28.9443C21.9732 28.9443 22.0814 28.9227 22.1895 28.8867C22.6869 28.7064 22.9465 28.1586 22.7662 27.6611L18.3976 15.4129C18.3903 15.3841 18.3759 15.3552 18.3615 15.3264C18.3543 15.312 18.3471 15.2976 18.3399 15.2832C18.3327 15.2687 18.3255 15.2543 18.3183 15.2399C18.311 15.2255 18.2966 15.2111 18.2894 15.1894C18.2822 15.1822 18.275 15.1678 18.2678 15.1606C18.2606 15.1462 18.2462 15.1318 18.2317 15.1173C18.2245 15.1101 18.2173 15.0957 18.2029 15.0885C18.1957 15.0741 18.1813 15.0669 18.1669 15.0525C18.1524 15.038 18.1452 15.0308 18.1308 15.0164C18.1236 15.0092 18.1092 15.002 18.102 14.9876C18.0876 14.9732 18.0731 14.966 18.0587 14.9515C18.0515 14.9443 18.0371 14.9371 18.0299 14.9299C18.0155 14.9227 18.0011 14.9083 17.9866 14.9011C17.9722 14.8939 17.9578 14.8867 17.9434 14.8794C17.929 14.8722 17.9145 14.865 17.9001 14.8578C17.8713 14.8434 17.8425 14.829 17.8136 14.8218H17.8064C17.7776 14.8146 17.7487 14.8074 17.7199 14.8001C17.7055 14.8001 17.6983 14.7929 17.6839 14.7929C17.6622 14.7857 17.6478 14.7857 17.6262 14.7785C17.6118 14.7785 17.5973 14.7785 17.5829 14.7713C17.5685 14.7713 17.5469 14.7641 17.5325 14.7641C17.518 14.7641 17.5036 14.7641 17.4892 14.7641C17.4748 14.7641 17.4604 14.7641 17.4387 14.7641C17.4243 14.7641 17.4027 14.7641 17.3883 14.7713C17.3739 14.7713 17.3594 14.7713 17.345 14.7785C17.3234 14.7785 17.309 14.7857 17.2874 14.7929C17.2729 14.7929 17.2657 14.8001 17.2513 14.8001C17.2225 14.8074 17.1936 14.8146 17.172 14.8218H17.1648C17.136 14.829 17.1071 14.8434 17.0783 14.8578C17.0639 14.865 17.0495 14.8722 17.035 14.8794C17.0206 14.8867 17.0062 14.8939 16.9918 14.9011C16.9774 14.9083 16.9629 14.9227 16.9413 14.9299C16.9341 14.9371 16.9197 14.9443 16.9125 14.9515C16.8981 14.966 16.8837 14.9732 16.8692 14.9876C16.862 14.9948 16.8476 15.002 16.8404 15.0164C16.826 15.0308 16.8188 15.038 16.8044 15.0525C16.7899 15.0669 16.7827 15.0741 16.7683 15.0885C16.7611 15.0957 16.7539 15.1101 16.7395 15.1173C16.7251 15.1318 16.7178 15.1462 16.7034 15.1606C16.6962 15.1678 16.689 15.1822 16.6818 15.1894C16.6746 15.2039 16.6602 15.2183 16.653 15.2327C16.6458 15.2471 16.6385 15.2615 16.6313 15.2759C16.6241 15.2904 16.6169 15.3048 16.6097 15.3192C16.5953 15.348 16.5809 15.3769 16.5737 15.4057L12.1905 27.6539C12.032 28.1586 12.2915 28.7064 12.7889 28.8867ZM17.4964 18.5849L19.1185 23.1266H15.8672L17.4964 18.5849Z" fill="black"/>
</g>
<defs>
<clipPath id="clip0">
<rect width="35" height="35" fill="white"/>
</clipPath>
</defs>
</svg>
