<svg width="15" height="15" viewBox="0 0 15 15" fill="none" xmlns="http://www.w3.org/2000/svg">
<path d="M7.5 14.375C7.33424 14.375 7.17527 14.3091 7.05806 14.1919C6.94085 14.0747 6.875 13.9157 6.875 13.75V11.875H4.375C4.04348 11.875 3.72554 11.7433 3.49112 11.5089C3.2567 11.2744 3.125 10.9565 3.125 10.625V4.37498C3.125 3.68123 3.6875 3.12498 4.375 3.12498H13.125C13.4565 3.12498 13.7745 3.25668 14.0089 3.4911C14.2433 3.72552 14.375 4.04346 14.375 4.37498V10.625C14.375 10.9565 14.2433 11.2744 14.0089 11.5089C13.7745 11.7433 13.4565 11.875 13.125 11.875H10.5625L8.25 14.1937C8.125 14.3125 7.96875 14.375 7.8125 14.375H7.5ZM8.125 10.625V12.55L10.05 10.625H13.125V4.37498H4.375V10.625H8.125ZM1.875 9.37498H0.625V1.87498C0.625 1.54346 0.756696 1.22552 0.991116 0.991101C1.22554 0.756681 1.54348 0.624985 1.875 0.624985H11.875V1.87498H1.875V9.37498Z" fill="#E5E5E5"/>
</svg>
