<svg width="35" height="35" viewBox="0 0 35 35" fill="none" xmlns="http://www.w3.org/2000/svg">
<g clip-path="url(#clip0)">
<path d="M34.4832 21.2477L29.8481 6.5317C29.1952 4.38637 26.9135 3.17379 24.7682 3.82672C24.2588 3.98457 23.9646 4.52269 24.1224 5.03212C24.2803 5.54155 24.8184 5.83572 25.3279 5.67787C26.4543 5.33347 27.6454 5.97205 27.9898 7.09853V7.1057L31.3046 17.6458C30.2499 17.0503 29.0373 16.7131 27.7458 16.7131C24.0292 16.7131 20.9583 19.5257 20.5421 23.1275H14.4433C13.9698 19.5831 10.9276 16.8422 7.25395 16.8422C5.95527 16.8422 4.73552 17.1866 3.68079 17.7821L7.0387 7.1057V7.09853C7.3831 5.97205 8.57416 5.33347 9.70064 5.67787C10.2101 5.83572 10.7554 5.54155 10.906 5.03212C11.0639 4.52269 10.7697 3.97739 10.2603 3.82672C8.11496 3.17379 5.84047 4.38637 5.18037 6.5317L0.559652 21.262C0.545302 21.3051 0.538127 21.341 0.530952 21.384C0.193726 22.2235 0 23.1419 0 24.0962C0 28.0927 3.25746 31.3501 7.25395 31.3501C10.9276 31.3501 13.9698 28.6093 14.4433 25.0648H20.578C21.1089 28.5447 24.1224 31.221 27.7458 31.221C31.7423 31.221 34.9998 27.9635 34.9998 23.967C35.007 23.0056 34.8204 22.0872 34.4832 21.2477ZM7.26113 29.4129C4.32654 29.4129 1.94443 27.0308 1.94443 24.0962C1.94443 21.1616 4.32654 18.7795 7.26113 18.7795C10.1957 18.7795 12.5778 21.1616 12.5778 24.0962C12.5778 27.0308 10.1885 29.4129 7.26113 29.4129ZM27.753 29.2837C24.8184 29.2837 22.4363 26.9016 22.4363 23.967C22.4363 21.0324 24.8256 18.6503 27.753 18.6503C30.6804 18.6503 33.0697 21.0324 33.0697 23.967C33.0697 26.9016 30.6876 29.2837 27.753 29.2837Z" fill="black"/>
</g>
<defs>
<clipPath id="clip0">
<rect width="35" height="35" fill="white"/>
</clipPath>
</defs>
</svg>
