<svg width="14" height="14" viewBox="0 0 14 14" fill="none" xmlns="http://www.w3.org/2000/svg">
<g clip-path="url(#clip0)">
<path d="M13.8708 6.34802L7.2825 0.456568C7.27098 0.44505 7.25946 0.436412 7.24506 0.427773C7.10109 0.289557 6.87073 0.283798 6.71812 0.419135L0.129834 6.31058C-0.0314179 6.45456 -0.0429359 6.69931 0.0981593 6.86057C0.175906 6.94695 0.282447 6.99014 0.388988 6.99014C0.481132 6.99014 0.573276 6.95847 0.648143 6.89224L1.83449 5.82971V6.03703V9.11233V12.7002C1.83449 13.2386 2.27218 13.6792 2.81352 13.6792C2.82216 13.6792 2.82792 13.6792 2.83656 13.6792C2.8452 13.6792 2.85096 13.6792 2.85959 13.6792H4.89252C5.39931 13.6792 5.81108 13.2674 5.81108 12.7607V9.26782C5.81108 9.19008 5.87442 9.12673 5.95217 9.12673H8.05132C8.12907 9.12673 8.19242 9.19008 8.19242 9.26782V12.7607C8.19242 13.2674 8.60418 13.6792 9.11098 13.6792H11.19C11.7371 13.6792 12.169 13.1407 12.169 12.4525V9.25055V8.27152V5.86714L13.3554 6.92967C13.4302 6.9959 13.5224 7.02758 13.6145 7.02758C13.721 7.02758 13.8276 6.98438 13.9053 6.898C14.0435 6.73675 14.0292 6.49199 13.8708 6.34802ZM11.3887 8.26864V9.24767V12.4468C11.3887 12.7261 11.2504 12.896 11.1871 12.896H9.1081C9.03035 12.896 8.967 12.8326 8.967 12.7549V9.26782C8.967 8.76103 8.55523 8.34927 8.04844 8.34927H5.94929C5.4425 8.34927 5.03073 8.76103 5.03073 9.26782V12.7607C5.03073 12.8384 4.96738 12.9017 4.88964 12.9017H2.85671C2.84808 12.9017 2.84232 12.9017 2.83368 12.9017C2.82504 12.9017 2.81928 12.9017 2.81064 12.9017C2.70122 12.9017 2.60908 12.8125 2.60908 12.7002V9.10945V6.03415V5.13287L6.98015 1.22827L11.3887 5.1703V8.26864Z" fill="#5E5E5E"/>
</g>
<defs>
<clipPath id="clip0">
<rect width="14" height="14" fill="white"/>
</clipPath>
</defs>
</svg>
