<svg width="176" height="46" viewBox="0 0 176 46" fill="none" xmlns="http://www.w3.org/2000/svg">
<path d="M135.17 25.091C136.394 23.2788 137.535 21.0207 138.593 18.3164C139.428 16.1976 139.943 14.5528 140.138 13.3819C140.333 12.1831 140.514 11.4582 140.681 11.2073C140.959 10.7612 141.516 10.5382 142.351 10.5382C142.963 10.5382 143.395 10.817 143.645 11.3746C143.896 11.9322 144.021 12.5873 144.021 13.34C144.021 13.9812 143.464 15.417 142.351 17.6473C141.237 19.8498 140.013 21.9546 138.677 23.9619C136.032 27.8928 134.404 30.2346 133.792 30.9873C131.871 33.3848 130.229 34.5837 128.865 34.5837C127.696 34.5837 126.903 34.0539 126.485 32.9946C126.207 32.2975 126.068 31.3358 126.068 30.1091C126.095 29.7188 126.109 29.4261 126.109 29.231C126.109 28.7013 125.914 28.4364 125.525 28.4364C125.052 28.4364 124.244 29.1055 123.103 30.4437C121.99 31.754 121.127 32.4091 120.515 32.4091C119.707 32.4091 119.179 32.1721 118.928 31.6982C118.705 31.2243 118.594 30.4855 118.594 29.4819C118.594 27.2237 119.499 23.9758 121.308 19.7382C123.145 15.4728 125.246 11.7649 127.613 8.61459C128.002 8.11277 128.392 7.72248 128.782 7.44368C129.199 7.16488 129.686 7.0255 130.243 7.0255C131.078 7.0255 131.495 7.75034 131.495 9.20004C131.495 10.0643 130.939 11.1237 129.825 12.3782C129.213 13.0473 128.6 13.7164 127.988 14.3855C126.736 15.8631 125.567 17.717 124.481 19.9473C123.312 22.317 122.574 24.4498 122.268 26.3455C123.187 25.4812 123.897 24.8261 124.398 24.38C125.344 23.5716 126.068 23.1673 126.569 23.1673C127.598 23.1673 128.294 23.5576 128.656 24.3382C128.907 24.8679 129.032 25.7461 129.032 26.9728C129.032 27.3073 128.99 27.7394 128.907 28.2691C128.712 29.5237 128.615 30.2625 128.615 30.4855C128.615 31.1825 128.865 31.531 129.366 31.531C130.285 31.531 131.481 30.4855 132.957 28.3946C133.959 26.8891 134.696 25.7879 135.17 25.091ZM147.372 16.7691C147.372 17.6891 147.079 18.4 146.495 18.9019C145.91 19.4037 145.27 19.6546 144.574 19.6546C143.99 19.6546 143.503 19.3898 143.113 18.86C142.751 18.3025 142.57 17.6334 142.57 16.8528C142.57 16.1837 142.807 15.6679 143.28 15.3055C143.753 14.9431 144.338 14.7619 145.034 14.7619C145.618 14.7619 146.147 14.971 146.62 15.3891C147.121 15.8073 147.372 16.2673 147.372 16.7691ZM139.105 31.1964C139.105 29.9419 139.355 28.4643 139.856 26.7637C140.497 24.5612 141.276 23.46 142.194 23.46C142.64 23.46 142.946 23.5716 143.113 23.7946C143.308 23.9898 143.405 24.2546 143.405 24.5891C143.405 24.8958 143.35 25.2722 143.238 25.7182C142.904 27.0564 142.737 27.851 142.737 28.1019C142.737 28.6873 142.765 29.0916 142.821 29.3146C142.904 29.5098 143.113 29.6073 143.447 29.6073C143.976 29.6073 144.755 29.231 145.785 28.4782C146.843 27.6976 147.901 26.917 148.958 26.1364C149.265 26.22 149.515 26.3455 149.71 26.5128C149.905 26.6522 150.002 26.8473 150.002 27.0982C150.002 27.6279 149.098 28.7431 147.288 30.4437C145.201 32.3953 143.378 33.371 141.819 33.371C141.095 33.371 140.455 33.1757 139.898 32.7855C139.369 32.3953 139.105 31.8655 139.105 31.1964ZM164.628 2.8855C165.38 2.8855 165.909 3.12247 166.215 3.59641C166.438 3.95884 166.549 4.48852 166.549 5.1855C166.549 6.30066 165.7 8.1267 164.002 10.6637C162.666 12.671 160.954 14.9431 158.867 17.48C158.755 17.6194 157.461 19.1388 154.984 22.0382C154.455 22.6516 154.037 23.1952 153.731 23.6691C153.453 24.1152 153.175 24.631 152.896 25.2164C153.397 24.6867 153.898 24.157 154.399 23.6273C156.069 22.0382 157.642 21.2437 159.117 21.2437C160.036 21.2437 160.662 21.4667 160.996 21.9128C161.246 22.2473 161.372 22.8188 161.372 23.6273C161.372 24.5473 160.801 25.5231 159.66 26.5546C158.63 27.4746 157.628 28.0461 156.654 28.2691C156.849 28.771 157.21 29.1334 157.739 29.3564C158.296 29.5794 158.978 29.691 159.785 29.691C160.565 29.691 161.636 29.1752 163 28.1437C164.364 27.1122 165.756 26.0528 167.175 24.9655C167.426 24.9655 167.648 25.077 167.843 25.3C168.066 25.4952 168.177 25.7043 168.177 25.9273C168.177 26.6522 167.022 27.9903 164.712 29.9419C162.123 32.1164 159.897 33.2037 158.032 33.2037C156.362 33.2037 155.248 32.8273 154.691 32.0746C154.496 31.7958 154.274 31.057 154.023 29.8582C153.16 30.5831 152.395 31.1685 151.727 31.6146C150.753 32.2557 149.973 32.5764 149.389 32.5764C148.693 32.5764 148.248 32.3535 148.053 31.9073C147.886 31.4613 147.802 30.834 147.802 30.0255C147.802 29.3843 148.108 28.2412 148.721 26.5964C149.222 25.2582 149.973 23.5019 150.976 21.3273C151.727 19.6825 152.659 17.7588 153.773 15.5564C155.387 12.2946 156.389 10.3012 156.779 9.57641C157.976 7.40186 159.103 5.81277 160.161 4.80913C161.525 3.5267 163.014 2.8855 164.628 2.8855ZM160.871 9.57641C160.453 9.57641 159.535 10.6916 158.115 12.9219C156.696 15.1243 155.68 16.9364 155.067 18.3582C156.125 17.1873 157.308 15.6958 158.616 13.8837C160.175 11.7649 160.954 10.4685 160.954 9.99459C160.954 9.71579 160.926 9.57641 160.871 9.57641ZM173.222 16.7691C173.222 17.6891 172.93 18.4 172.345 18.9019C171.761 19.4037 171.12 19.6546 170.425 19.6546C169.84 19.6546 169.353 19.3898 168.963 18.86C168.602 18.3025 168.421 17.6334 168.421 16.8528C168.421 16.1837 168.657 15.6679 169.131 15.3055C169.604 14.9431 170.188 14.7619 170.884 14.7619C171.469 14.7619 171.997 14.971 172.471 15.3891C172.972 15.8073 173.222 16.2673 173.222 16.7691ZM164.955 31.1964C164.955 29.9419 165.206 28.4643 165.707 26.7637C166.347 24.5612 167.126 23.46 168.045 23.46C168.49 23.46 168.796 23.5716 168.963 23.7946C169.158 23.9898 169.256 24.2546 169.256 24.5891C169.256 24.8958 169.2 25.2722 169.089 25.7182C168.755 27.0564 168.588 27.851 168.588 28.1019C168.588 28.6873 168.615 29.0916 168.671 29.3146C168.755 29.5098 168.963 29.6073 169.298 29.6073C169.826 29.6073 170.606 29.231 171.636 28.4782C172.693 27.6976 173.751 26.917 174.809 26.1364C175.115 26.22 175.365 26.3455 175.56 26.5128C175.755 26.6522 175.853 26.8473 175.853 27.0982C175.853 27.6279 174.948 28.7431 173.139 30.4437C171.051 32.3953 169.228 33.371 167.669 33.371C166.945 33.371 166.305 33.1757 165.749 32.7855C165.22 32.3953 164.955 31.8655 164.955 31.1964Z" fill="white"/>
<path d="M6.26085 31.0514L10.1751 19.733H12.151L7.07007 33.4546H5.47049L0.398926 19.733H2.36545L6.26085 31.0514ZM21.739 27.1121H15.8018V31.975H22.6988V33.4546H13.9952V19.733H22.6047V21.222H15.8018V25.6325H21.739V27.1121ZM34.6013 21.222H30.1979V33.4546H28.4008V21.222H24.0066V19.733H34.6013V21.222ZM44.3777 27.1121H38.4402V31.975H45.3373V33.4546H36.6337V19.733H45.2432V21.222H38.4402V25.6325H44.3777V27.1121ZM52.6108 27.9038H49.3927V33.4546H47.5768V19.733H52.112C53.6549 19.733 54.8407 20.0849 55.6686 20.7885C56.503 21.4922 56.9202 22.5163 56.9202 23.8608C56.9202 24.7152 56.688 25.4598 56.2239 26.0943C55.766 26.7289 55.1262 27.2032 54.3043 27.5174L57.5224 33.3414V33.4546H55.5839L52.6108 27.9038ZM49.3927 26.4242H52.1686C53.0656 26.4242 53.7773 26.1917 54.3043 25.7268C54.8375 25.2618 55.104 24.6399 55.104 23.8608C55.104 23.0126 54.85 22.3624 54.3419 21.91C53.8402 21.4576 53.1125 21.2283 52.1589 21.222H49.3927V26.4242ZM61.3989 33.4546H59.5924V19.733H61.3989V33.4546ZM75.24 33.4546H73.4238L66.527 22.8807V33.4546H64.7108V19.733H66.527L73.4427 30.354V19.733H75.24V33.4546ZM86.1828 29.8734H80.4432L79.1541 33.4546H77.291L82.5225 19.733H84.1032L89.3444 33.4546H87.4906L86.1828 29.8734ZM80.9889 28.3844H85.6465L83.3129 21.9665L80.9889 28.3844ZM96.2129 27.9038H92.9951V33.4546H91.1789V19.733H95.7144C97.2573 19.733 98.4431 20.0849 99.271 20.7885C100.105 21.4922 100.522 22.5163 100.522 23.8608C100.522 24.7152 100.29 25.4598 99.826 26.0943C99.368 26.7289 98.7283 27.2032 97.9067 27.5174L101.124 33.3414V33.4546H99.1862L96.2129 27.9038ZM92.9951 26.4242H95.7706C96.6677 26.4242 97.3797 26.1917 97.9067 25.7268C98.4399 25.2618 98.7064 24.6399 98.7064 23.8608C98.7064 23.0126 98.4524 22.3624 97.9443 21.91C97.4423 21.4576 96.7149 21.2283 95.7613 21.222H92.9951V26.4242ZM106.789 26.6221L110.365 19.733H112.415L107.692 28.3373V33.4546H105.885V28.3373L101.162 19.733H103.232L106.789 26.6221Z" fill="white"/>
</svg>
