<svg width="35" height="35" viewBox="0 0 35 35" fill="none" xmlns="http://www.w3.org/2000/svg">
<path d="M30.6831 1.78052H4.31686C1.94041 1.78052 0 3.71366 0 6.09738V22.8198C0 25.1962 1.93314 27.1366 4.31686 27.1366H16.5189V31.2573H10.436C9.89099 31.2573 9.45494 31.6933 9.45494 32.2384C9.45494 32.7834 9.89099 33.2195 10.436 33.2195H24.564C25.109 33.2195 25.5451 32.7834 25.5451 32.2384C25.5451 31.6933 25.109 31.2573 24.564 31.2573H18.4811V27.1366H30.6831C33.0596 27.1366 35 25.2035 35 22.8198V6.09738C35 3.71366 33.0669 1.78052 30.6831 1.78052ZM4.31686 3.74273H30.6904C31.984 3.74273 33.0451 4.79651 33.0451 6.09738V20.0727H1.96221V6.09738C1.96221 4.79651 3.01599 3.74273 4.31686 3.74273ZM30.6831 25.1744H4.31686C3.02326 25.1744 1.96221 24.1206 1.96221 22.8198V22.0349H33.0378V22.8198C33.0378 24.1134 31.984 25.1744 30.6831 25.1744Z" fill="black"/>
</svg>
