<svg width="11" height="11" viewBox="0 0 11 11" fill="none" xmlns="http://www.w3.org/2000/svg">
<path d="M10.5279 10.439L7.94695 7.76585C8.6393 6.94146 9.05847 5.86585 9.05847 4.69024C9.05847 2.10244 7.02618 0 4.52996 0C2.03139 0 0.00144958 2.10488 0.00144958 4.69024C0.00144958 7.27561 2.03375 9.38049 4.52996 9.38049C5.66503 9.38049 6.70355 8.94634 7.49952 8.22927L10.0805 10.9024C10.1417 10.9659 10.2242 11 10.3042 11C10.3843 11 10.4667 10.9683 10.5279 10.9024C10.6504 10.7756 10.6504 10.5659 10.5279 10.439ZM0.634923 4.69024C0.634923 2.46585 2.38227 0.658537 4.52761 0.658537C6.67529 0.658537 8.42029 2.46829 8.42029 4.69024C8.42029 6.91219 6.67529 8.72439 4.52761 8.72439C2.38227 8.72439 0.634923 6.91463 0.634923 4.69024Z" fill="#5E5E5E"/>
</svg>
