<svg width="14" height="14" viewBox="0 0 14 14" fill="none" xmlns="http://www.w3.org/2000/svg">
<path d="M12.6 12.1018L11.7984 3.07485C11.7812 2.87444 11.6123 2.7227 11.4147 2.7227H9.76564C9.74274 1.21677 8.51165 0 6.99999 0C5.48834 0 4.25725 1.21677 4.23435 2.7227H2.58527C2.38486 2.7227 2.21881 2.87444 2.20163 3.07485L1.39999 12.1018C1.39999 12.1133 1.39713 12.1247 1.39713 12.1362C1.39713 13.164 2.33905 14 3.49856 14H10.5014C11.6609 14 12.6029 13.164 12.6029 12.1362C12.6029 12.1247 12.6029 12.1133 12.6 12.1018ZM6.99999 0.773006C8.08507 0.773006 8.96973 1.64335 8.99263 2.7227H5.00736C5.03026 1.64335 5.91492 0.773006 6.99999 0.773006ZM10.5014 13.227H3.49856C2.77136 13.227 2.18159 12.746 2.17014 12.1534L2.93742 3.49857H4.23149V4.67239C4.23149 4.88712 4.40327 5.0589 4.61799 5.0589C4.83271 5.0589 5.00449 4.88712 5.00449 4.67239V3.49857H8.99263V4.67239C8.99263 4.88712 9.16441 5.0589 9.37914 5.0589C9.59386 5.0589 9.76564 4.88712 9.76564 4.67239V3.49857H11.0597L11.8299 12.1534C11.8184 12.746 11.2258 13.227 10.5014 13.227Z" fill="#5E5E5E"/>
</svg>
